<?xml version="1.0" encoding="utf-8"?>
<!-- Generator: Adobe Illustrator 22.1.0, SVG Export Plug-In . SVG Version: 6.00 Build 0)  -->
<svg version="1.1" id="Calque_2" xmlns="http://www.w3.org/2000/svg" xmlns:xlink="http://www.w3.org/1999/xlink" x="0px" y="0px"
	 viewBox="0 0 595.3 595.3" style="enable-background:new 0 0 595.3 595.3;" xml:space="preserve">
<style type="text/css">
	.st0{fill:#588EBD;}
</style>
<path class="st0" d="M333.8,276.5c0,0,54.8-11.4,48.3-91.3h-23.7c0,0,0.7-10.3,0.3-12h-61.1h-61.1c-0.3,1.7,0.3,12,0.3,12h-23.7
	c-6.5,79.9,48.3,91.3,48.3,91.3c2.2,11.3,20.2,19.8,20.2,19.8c-4.9,0-4.7,4.2-4.7,4.2c-0.8,8.1,11.4,6.2,11.4,6.2
	c4.6,81.8-25,102.6-25,102.6c-5.3,0-5.6,4.4-5.6,4.4h-8v42.8h-4.8v9.4h52.8h52.8v-9.4h-4.8v-42.8h-8c0,0-0.2-4.4-5.6-4.4
	c0,0-29.6-20.8-25-102.6c0,0,12.2,1.9,11.4-6.2c0,0,0.1-4.2-4.7-4.2C313.6,296.3,331.7,287.7,333.8,276.5z M357.5,192.8h18.3
	c0.4,62.5-35.7,73.1-35.7,73.1C352.4,245.4,357.5,192.8,357.5,192.8z M219.4,192.8h18.3c0,0,5.2,52.7,17.4,73.1
	C255.1,265.9,219,255.2,219.4,192.8z M337.3,420.3v36.3h-79v-36.3H337.3z M297.6,247.1L275.8,263l8.4-25.7l-21.9-15.9h27l8.4-25.7
	l8.4,25.7h27l-21.9,15.9l8.4,25.7L297.6,247.1z"/>
</svg>
