<?xml version="1.0" encoding="utf-8"?>
<!-- Generator: Adobe Illustrator 22.1.0, SVG Export Plug-In . SVG Version: 6.00 Build 0)  -->
<svg version="1.1" id="Calque_2" xmlns="http://www.w3.org/2000/svg" xmlns:xlink="http://www.w3.org/1999/xlink" x="0px" y="0px"
	 viewBox="0 0 595.3 595.3" style="enable-background:new 0 0 595.3 595.3;" xml:space="preserve">
<style type="text/css">
	.st0{fill:#588EBD;}
</style>
<g>
	<polygon class="st0" points="250.6,138.6 325.3,245.6 268,245.6 193.6,138.6 	"/>
	<polygon class="st0" points="307,192.1 344.8,138.6 401.8,138.6 335.9,232.3 	"/>
	<path class="st0" d="M297.6,255.5c-54.5,0-98.7,45-98.7,100.6c0,55.6,44.2,100.6,98.7,100.6s98.7-45,98.7-100.6
		C396.3,300.5,352.1,255.5,297.6,255.5z M297.6,441c-46,0-83.2-38-83.2-84.9c0-46.9,37.3-84.9,83.2-84.9c46,0,83.2,38,83.2,84.9
		C380.9,403,343.6,441,297.6,441z"/>
	<path class="st0" d="M253.3,317.2c0,0,39.8-44.5,89.4,0l7-6.4c-55.3-54.7-104.6,0-104.6,0L253.3,317.2z"/>
	<path class="st0" d="M236.4,317.2c0,0-10.2,16.9,4.1,30.8C240.5,348,251.3,336.6,236.4,317.2z"/>
	<path class="st0" d="M267.5,422.7c0,0,12.7,9.3,30.1-7.9C297.6,414.8,279.6,406.8,267.5,422.7"/>
	<path class="st0" d="M249,386.4c0,0,1.3-15.7-22.5-21.5C226.5,364.9,229.1,384.5,249,386.4"/>
	<path class="st0" d="M241.6,368.6c0,0,6.6-14.3-13.8-27.9C227.8,340.7,223.5,360,241.6,368.6"/>
	<path class="st0" d="M261.1,402.1c0,0-3.8-15.3-28.2-13.2C232.9,388.9,241.6,406.6,261.1,402.1"/>
	<path class="st0" d="M247.1,408c0,0,8.7,13.1,31,3C278.1,411.1,264,397.3,247.1,408"/>
	<path class="st0" d="M359.5,317.2c0,0,10.2,16.9-4.1,30.8C355.4,348,344.6,336.6,359.5,317.2z"/>
	<path class="st0" d="M328.4,422.7c0,0-12.7,9.3-30.1-7.9C298.3,414.8,316.3,406.8,328.4,422.7"/>
	<path class="st0" d="M346.9,386.4c0,0-1.3-15.7,22.5-21.5C369.4,364.9,366.8,384.5,346.9,386.4"/>
	<path class="st0" d="M354.3,368.6c0,0-6.6-14.3,13.8-27.9C368.2,340.7,372.4,360,354.3,368.6"/>
	<path class="st0" d="M334.8,402.1c0,0,3.8-15.3,28.2-13.2C363,388.9,354.3,406.6,334.8,402.1"/>
	<path class="st0" d="M348.8,408c0,0-8.7,13.1-31,3C317.9,411.1,331.9,397.3,348.8,408"/>
	<polygon class="st0" points="297.6,312.8 308,344.8 341.7,344.8 314.5,364.6 324.9,396.6 297.6,376.8 270.4,396.6 280.8,364.6 
		253.6,344.8 287.2,344.8 	"/>
</g>
</svg>
