<?xml version="1.0" encoding="utf-8"?>
<!-- Generator: Adobe Illustrator 22.1.0, SVG Export Plug-In . SVG Version: 6.00 Build 0)  -->
<svg version="1.1" id="Calque_2" xmlns="http://www.w3.org/2000/svg" xmlns:xlink="http://www.w3.org/1999/xlink" x="0px" y="0px"
	 viewBox="0 0 595.3 595.3" style="enable-background:new 0 0 595.3 595.3;" xml:space="preserve">
<style type="text/css">
	.st0{fill:#588EBD;}
</style>
<path class="st0" d="M335.2,274.8c0,0,56.9-11.8,50.1-94.8h-24.6c0,0,0.7-10.7,0.4-12.4h-63.5h-63.5c-0.4,1.8,0.4,12.4,0.4,12.4
	h-24.6c-6.8,83,50.1,94.8,50.1,94.8c2.3,11.7,21,20.6,21,20.6c-5.1,0-4.9,4.4-4.9,4.4c-0.8,8.5,11.8,6.4,11.8,6.4
	c4.8,84.9-26,106.6-26,106.6c-5.5,0-5.8,4.5-5.8,4.5h-8.3v44.5h-5v9.8h54.8h54.8v-9.8h-5v-44.5h-8.3c0,0-0.3-4.5-5.8-4.5
	c0,0-30.7-21.6-26-106.6c0,0,12.6,2,11.8-6.4c0,0,0.1-4.4-4.9-4.4C314.2,295.4,333,286.5,335.2,274.8z M359.8,187.9h19
	c0.4,64.8-37.1,75.9-37.1,75.9C354.5,242.6,359.8,187.9,359.8,187.9z M216.5,187.9h19c0,0,5.4,54.7,18.1,75.9
	C253.5,263.9,216,252.8,216.5,187.9z M338.8,424.2v37.7h-82v-37.7H338.8z M297.6,244.3l-22.7,16.5l8.7-26.7l-22.7-16.5H289l8.7-26.7
	l8.7,26.7h28.1l-22.7,16.5l8.7,26.7L297.6,244.3z"/>
</svg>
