<?xml version="1.0" encoding="utf-8"?>
<!-- Generator: Adobe Illustrator 22.1.0, SVG Export Plug-In . SVG Version: 6.00 Build 0)  -->
<svg version="1.1" id="Calque_2" xmlns="http://www.w3.org/2000/svg" xmlns:xlink="http://www.w3.org/1999/xlink" x="0px" y="0px"
	 viewBox="0 0 595.3 595.3" style="enable-background:new 0 0 595.3 595.3;" xml:space="preserve">
<style type="text/css">
	.st0{fill:#588EBD;}
</style>
<g>
	<g>
		<g>
			<path class="st0" d="M284.8,421.2h-74.7c0,0-3-22,17.3-22s20.3,0,20.3,0h37.2V421.2z"/>
			<path class="st0" d="M284.8,421.2h74.7c0,0,3-22-17.3-22c-20.3,0-20.3,0-20.3,0h-37.2V421.2z"/>
		</g>
		<g>
			<g>
				<path class="st0" d="M284.8,440.8h-90.1c0,0-3.6-22,20.8-22s24.5,0,24.5,0h44.8V440.8z"/>
				<path class="st0" d="M284.8,440.8h90.1c0,0,3.6-22-20.8-22s-24.5,0-24.5,0h-44.8V440.8z"/>
			</g>
			<rect x="194.5" y="437.9" class="st0" width="180.6" height="40.4"/>
		</g>
	</g>
	<path class="st0" d="M384.6,208.9"/>
	<path class="st0" d="M385,187.2c0,0,0.8-14.2-0.4-17.8h-99.8h-99.8c-1.2,3.6-0.4,17.8-0.4,17.8s-43.2,2.4-38.4,64
		s82.8,81.8,82.8,81.8c12.8,12.2,26.4,19.4,26.4,19.4c12.8,8.9,14.8,23.5,14.8,23.5v23.1h14.6h14.6V376c0,0,2-14.6,14.8-23.5
		c0,0,13.6-7.3,26.4-19.4c0,0,78-20.3,82.8-81.8C428.1,189.6,385,187.2,385,187.2z M164.9,254.3c-3.9-40.5,20.6-45.7,20.6-45.7
		c1.7,61.4,24.5,95.9,24.5,95.9C170.1,283.9,164.9,254.3,164.9,254.3z M319.2,304.4l-34.4-25l-34.4,25l13.1-40.4l-34.4-25h42.5
		l13.1-40.4L298,239h42.5l-34.4,25L319.2,304.4z M405.2,254.3c0,0-5.2,29.6-45.1,50.1c0,0,22.8-34.4,24.5-95.9
		C384.6,208.6,409.1,213.8,405.2,254.3z"/>
	<polygon class="st0" points="171.4,312 165.7,317.8 169.4,325.1 162.1,321.4 156.3,327.2 157.6,319.1 150.3,315.4 158.4,314.1 
		159.6,306.1 163.3,313.3 	"/>
	<polygon class="st0" points="150.3,287.8 144.9,296.1 151.1,303.8 141.5,301.2 136.1,309.5 135.6,299.6 126.1,297 135.3,293.5 
		134.9,283.6 141,291.3 	"/>
	<polygon class="st0" points="124.2,248.8 129.5,258.7 140.4,256.7 132.7,264.8 137.9,274.6 127.9,269.7 120.2,277.8 121.7,266.7 
		111.7,261.8 122.7,259.9 	"/>
	<polygon class="st0" points="126,206.4 130.1,219 143.3,218.8 132.7,226.7 136.9,239.2 126.2,231.5 115.5,239.4 119.5,226.8 
		108.8,219.1 122,219 	"/>
	<polygon class="st0" points="399.3,308.5 405.1,314.3 401.4,321.6 408.7,317.9 414.4,323.7 413.2,315.6 420.5,311.9 412.4,310.6 
		411.1,302.5 407.4,309.8 	"/>
	<polygon class="st0" points="420.4,284.3 425.9,292.5 419.7,300.3 429.2,297.7 434.7,305.9 435.2,296 444.7,293.4 435.4,289.9 
		435.9,280 429.7,287.8 	"/>
	<polygon class="st0" points="446.6,245.3 441.3,255.1 430.3,253.2 438.1,261.2 432.8,271.1 442.9,266.2 450.6,274.2 449.1,263.2 
		459.1,258.3 448.1,256.3 	"/>
	<polygon class="st0" points="444.8,202.9 440.6,215.4 427.4,215.3 438,223.1 433.9,235.7 444.6,228 455.2,235.8 451.2,223.3 
		462,215.6 448.8,215.5 	"/>
</g>
</svg>
